<svg width="32" height="33" viewBox="0 0 32 33" fill="none" xmlns="http://www.w3.org/2000/svg">
<g clip-path="url(#clip0_86_303)">
<path d="M16 5.5C9.925 5.5 5 10.425 5 16.5C5 22.015 9.063 26.569 14.355 27.364V19.415H11.634V16.524H14.355V14.6C14.355 11.414 15.907 10.016 18.555 10.016C19.823 10.016 20.494 10.111 20.811 10.153V12.677H19.005C17.881 12.677 17.489 13.743 17.489 14.944V16.524H20.782L20.336 19.415H17.489V27.387C22.858 26.66 27 22.07 27 16.5C27 10.425 22.075 5.5 16 5.5Z" fill="#CCCCCC"/>
</g>
<defs>
<clipPath id="clip0_86_303">
<rect width="32" height="33" fill="white"/>
</clipPath>
</defs>
</svg>
