<svg width="32" height="33" viewBox="0 0 32 33" fill="none" xmlns="http://www.w3.org/2000/svg">
<g clip-path="url(#clip0_86_315)">
<path d="M11.66 6.5C10.1598 6.50317 8.72205 7.10051 7.66128 8.16128C6.60051 9.22205 6.00317 10.6598 6 12.16V20.346C6 23.457 8.543 26 11.66 26H19.846C22.957 26 25.5 23.457 25.5 20.34V12.16C25.4968 10.6598 24.8995 9.22205 23.8387 8.16128C22.778 7.10051 21.3402 6.50317 19.84 6.5H11.66ZM11.66 8H19.84C20.3868 7.99815 20.9286 8.10449 21.4341 8.31289C21.9397 8.5213 22.399 8.82765 22.7857 9.21431C23.1723 9.60097 23.4787 10.0603 23.6871 10.5659C23.8955 11.0714 24.0019 11.6132 24 12.16V20.34C24.002 20.8863 23.8959 21.4277 23.6879 21.9329C23.48 22.4381 23.1741 22.8972 22.7881 23.2839C22.4021 23.6705 21.9434 23.9769 21.4385 24.1856C20.9335 24.3944 20.3924 24.5012 19.846 24.5H11.66C11.1137 24.502 10.5723 24.3959 10.0671 24.1879C9.56187 23.98 9.10276 23.6741 8.71615 23.2881C8.32954 22.9021 8.02307 22.4434 7.81436 21.9385C7.60564 21.4335 7.49881 20.8924 7.5 20.346V12.16C7.49815 11.6132 7.60449 11.0714 7.81289 10.5659C8.0213 10.0603 8.32765 9.60097 8.71431 9.21431C9.10097 8.82765 9.5603 8.5213 10.0659 8.31289C10.5714 8.10449 11.1132 7.99815 11.66 8ZM20.75 10.5C20.6514 10.4997 20.5538 10.519 20.4627 10.5566C20.3716 10.5942 20.2888 10.6494 20.2191 10.7191C20.1494 10.7888 20.0942 10.8716 20.0566 10.9627C20.019 11.0538 19.9997 11.1514 20 11.25C20 11.666 20.334 12 20.75 12C21.166 12 21.5 11.666 21.5 11.25C21.5003 11.1514 21.481 11.0538 21.4434 10.9627C21.4058 10.8716 21.3506 10.7888 21.2809 10.7191C21.2112 10.6494 21.1284 10.5942 21.0373 10.5566C20.9462 10.519 20.8486 10.4997 20.75 10.5ZM15.75 11C14.3587 11.0037 13.0255 11.558 12.0418 12.5418C11.058 13.5255 10.5037 14.8587 10.5 16.25C10.5037 17.6413 11.058 18.9745 12.0418 19.9582C13.0255 20.942 14.3587 21.4963 15.75 21.5C17.1413 21.4963 18.4745 20.942 19.4582 19.9582C20.442 18.9745 20.9963 17.6413 21 16.25C20.9963 14.8587 20.442 13.5255 19.4582 12.5418C18.4745 11.558 17.1413 11.0037 15.75 11ZM15.75 12.5C17.83 12.5 19.5 14.17 19.5 16.25C19.5 18.33 17.83 20 15.75 20C13.67 20 12 18.33 12 16.25C12 14.17 13.67 12.5 15.75 12.5Z" fill="#CCCCCC" stroke="#636367" stroke-width="0.2"/>
</g>
<defs>
<clipPath id="clip0_86_315">
<rect width="32" height="33" fill="white"/>
</clipPath>
</defs>
</svg>
