<svg width="32" height="33" viewBox="0 0 32 33" fill="none" xmlns="http://www.w3.org/2000/svg">
<g clip-path="url(#clip0_86_309)">
<path d="M7.465 11.175C7.498 10.855 7.415 10.606 7.218 10.429L5.246 7.873V7.5H11.359L16.042 18.63L20.183 7.5H26V7.873L24.324 9.63C24.192 9.737 24.144 9.896 24.176 10.11V22.89C24.143 23.104 24.193 23.263 24.324 23.37L25.951 25.127V25.5H17.718V25.127L19.444 23.37C19.509 23.263 19.542 23.192 19.542 23.157C19.5804 23.0549 19.5974 22.946 19.592 22.837V12.506L14.858 25.5H14.218L8.745 12.506V21.186C8.68 21.576 8.778 21.914 9.041 22.198L11.26 25.074V25.5H5V25.074L7.169 22.198C7.432 21.914 7.531 21.577 7.465 21.186V11.175Z" fill="#CCCCCC"/>
</g>
<defs>
<clipPath id="clip0_86_309">
<rect width="32" height="33" fill="white"/>
</clipPath>
</defs>
</svg>
