<svg width="32" height="33" viewBox="0 0 32 33" fill="none" xmlns="http://www.w3.org/2000/svg">
<g clip-path="url(#clip0_86_306)">
<path d="M17.7599 6.82031C16.8329 6.82031 15.7499 7.54731 15.5869 10.7943C15.7249 10.7903 15.8609 10.7803 15.9999 10.7803C16.1549 10.7803 16.3139 10.7883 16.4669 10.7943C16.5719 8.84331 17.0369 7.70031 17.7599 7.70031C18.0699 7.70031 18.2449 7.86831 18.5709 8.22231C18.9529 8.63731 19.4509 9.17531 20.4269 9.37731C20.4101 9.25903 20.4011 9.13977 20.3999 9.02031C20.3999 8.83431 20.4189 8.65931 20.4549 8.48431C19.8499 8.31931 19.5299 7.97031 19.2169 7.63131C18.8689 7.25331 18.4679 6.82031 17.7599 6.82031ZM23.0399 7.26031C22.0689 7.26031 21.2799 8.05031 21.2799 9.02031C21.2799 9.99031 22.0689 10.7803 23.0399 10.7803C24.0109 10.7803 24.7999 9.99031 24.7999 9.02031C24.7999 8.05031 24.0109 7.26031 23.0399 7.26031ZM15.9999 11.6603C10.6619 11.6603 6.31989 14.3793 6.31989 18.2603C6.31989 22.1403 10.6609 25.3003 15.9999 25.3003C21.3379 25.3003 25.6799 22.1403 25.6799 18.2603C25.6799 14.3793 21.3379 11.6603 15.9999 11.6603ZM8.2999 12.0723C7.6569 12.0723 7.04689 12.3353 6.58089 12.8023C6.22289 13.1526 5.98389 13.6065 5.89759 14.0999C5.81129 14.5933 5.88205 15.1013 6.09989 15.5523C6.76489 14.2643 7.90989 13.1653 9.38589 12.3473C9.05048 12.1717 8.67846 12.0775 8.2999 12.0723ZM23.6999 12.0723C23.3199 12.0723 22.9489 12.1773 22.6139 12.3473C24.0899 13.1653 25.2339 14.2643 25.8999 15.5513C26.1177 15.1003 26.1885 14.5923 26.1022 14.0989C26.0159 13.6055 25.7769 13.1516 25.4189 12.8013C25.1946 12.5722 24.9271 12.3897 24.6319 12.2646C24.3366 12.1395 24.0195 12.0741 23.6989 12.0723H23.6999ZM12.4799 15.6203C12.83 15.6203 13.1657 15.7594 13.4133 16.0069C13.6608 16.2545 13.7999 16.5902 13.7999 16.9403C13.7999 17.2904 13.6608 17.6261 13.4133 17.8737C13.1657 18.1212 12.83 18.2603 12.4799 18.2603C12.1298 18.2603 11.7941 18.1212 11.5465 17.8737C11.299 17.6261 11.1599 17.2904 11.1599 16.9403C11.1599 16.5902 11.299 16.2545 11.5465 16.0069C11.7941 15.7594 12.1298 15.6203 12.4799 15.6203ZM19.5199 15.6203C19.87 15.6203 20.2057 15.7594 20.4533 16.0069C20.7008 16.2545 20.8399 16.5902 20.8399 16.9403C20.8399 17.2904 20.7008 17.6261 20.4533 17.8737C20.2057 18.1212 19.87 18.2603 19.5199 18.2603C19.1698 18.2603 18.8341 18.1212 18.5865 17.8737C18.339 17.6261 18.1999 17.2904 18.1999 16.9403C18.1999 16.5902 18.339 16.2545 18.5865 16.0069C18.8341 15.7594 19.1698 15.6203 19.5199 15.6203ZM12.0669 20.4603C12.1769 20.4793 12.2859 20.5403 12.3569 20.6393C12.4029 20.7043 13.4339 22.0823 15.9999 22.0823C18.5999 22.0823 19.6329 20.6663 19.6439 20.6523C19.7829 20.4553 20.0639 20.4023 20.2619 20.5423C20.3083 20.5754 20.3477 20.6174 20.3778 20.6658C20.4079 20.7143 20.428 20.7682 20.437 20.8245C20.4461 20.8808 20.4438 20.9383 20.4304 20.9938C20.417 21.0492 20.3927 21.1014 20.3589 21.1473C20.3069 21.2213 19.0519 22.9623 15.9989 22.9623C12.9459 22.9623 11.6929 21.2223 11.6409 21.1473C11.6068 21.1015 11.5822 21.0494 11.5686 20.994C11.5549 20.9386 11.5525 20.881 11.5614 20.8246C11.5704 20.7682 11.5905 20.7142 11.6207 20.6657C11.6508 20.6172 11.6903 20.5753 11.7369 20.5423C11.8319 20.4729 11.9504 20.4434 12.0669 20.4603Z" fill="#CCCCCC"/>
</g>
<defs>
<clipPath id="clip0_86_306">
<rect width="32" height="33" fill="white"/>
</clipPath>
</defs>
</svg>
