<svg width="32" height="33" viewBox="0 0 32 33" fill="none" xmlns="http://www.w3.org/2000/svg">
<path d="M6.91496 16.3079C13.199 13.5429 21.331 10.1729 22.453 9.7059C25.398 8.4859 26.301 8.7189 25.851 11.4229C25.527 13.3669 24.594 19.8009 23.85 23.8059C23.408 26.1809 22.418 26.4629 20.86 25.4359C20.111 24.9409 16.33 22.4409 15.51 21.8539C14.761 21.3189 13.728 20.6749 15.024 19.4079C15.484 18.9559 18.507 16.0709 20.861 13.8249C21.17 13.5299 20.782 13.0449 20.426 13.2819C17.7118 15.0791 15.0008 16.8811 12.293 18.6879C11.447 19.2619 10.634 19.5259 9.17596 19.1069C8.07396 18.7899 6.99696 18.4129 6.57796 18.2689C4.96496 17.7149 5.34796 16.9969 6.91496 16.3079Z" fill="#CCCCCC"/>
</svg>
