<svg width="32" height="33" viewBox="0 0 32 33" fill="none" xmlns="http://www.w3.org/2000/svg">
<g clip-path="url(#clip0_86_312)">
<path d="M27 9.44298C26.176 9.80798 25.35 10.083 24.433 10.177C25.349 9.62498 26.083 8.70898 26.449 7.69898C25.532 8.24998 24.615 8.61498 23.609 8.80198C22.692 7.88498 21.5 7.33398 20.219 7.33398C19.028 7.33478 17.8859 7.80792 17.0432 8.64965C16.2005 9.49137 15.7261 10.6329 15.724 11.824C15.724 12.193 15.724 12.558 15.817 12.834C12.057 12.651 8.76 10.907 6.557 8.15698C6.099 8.80198 5.917 9.62498 5.917 10.449C5.917 12.009 6.74 13.385 7.933 14.209C7.199 14.115 6.468 13.933 5.917 13.657V13.75C5.917 15.949 7.474 17.782 9.49 18.15C9.125 18.24 8.76 18.334 8.301 18.334C8.026 18.334 7.75 18.334 7.474 18.24C8.026 20.074 9.676 21.36 11.692 21.36C10.135 22.552 8.208 23.282 6.099 23.282C5.734 23.282 5.365 23.282 5 23.192C7.05393 24.5029 9.4384 25.2024 11.875 25.209C20.218 25.209 24.708 18.334 24.708 12.375V11.824C25.625 11.183 26.359 10.359 27 9.44298Z" fill="#CCCCCC"/>
</g>
<defs>
<clipPath id="clip0_86_312">
<rect width="32" height="33" fill="white"/>
</clipPath>
</defs>
</svg>
